<!DOCTYPE svg PUBLIC "-//W3C//DTD SVG 20010904//EN" "http://www.w3.org/TR/2001/REC-SVG-20010904/DTD/svg10.dtd">
<svg version="1.0" xmlns="http://www.w3.org/2000/svg" width="486px" height="309px" viewBox="0 0 4860 3090" preserveAspectRatio="xMidYMid meet">
<g id="layer101" fill="#010102" stroke="none">
 <path d="M2818 3085 c-2 -2 -597 -58 -1323 -126 -726 -67 -1321 -123 -1322 -124 -2 -1 -3 -235 -3 -520 l-1 -518 588 -234 c323 -128 598 -238 610 -245 17 -8 26 -8 38 2 8 7 18 10 22 7 3 -4 -45 -153 -107 -332 -62 -179 -111 -327 -109 -329 2 -2 14 -6 26 -10 18 -6 23 -1 33 30 l12 36 18 -51 c21 -62 42 -80 93 -81 128 -1 277 338 225 512 -23 77 -98 102 -157 52 -17 -14 -31 -22 -31 -17 0 13 67 210 77 225 5 8 10 -10 13 -47 l5 -60 338 -133 337 -134 0 -36 c0 -31 -29 -80 -164 -287 -90 -137 -161 -253 -157 -256 3 -4 15 -9 26 -13 17 -5 38 23 145 190 68 108 126 192 128 186 1 -5 -6 -99 -18 -208 -26 -254 -26 -260 2 -267 12 -4 23 -5 24 -4 1 1 16 151 34 332 18 182 34 332 36 334 2 2 207 -76 455 -174 314 -125 454 -176 464 -169 7 5 389 360 848 789 l835 780 1 378 1 377 -22 0 c-13 0 -241 16 -507 35 -267 19 -487 33 -489 30 -3 -3 -11 0 -18 6 -15 12 -995 85 -1006 74z m472 -50 c190 -14 356 -25 370 -26 14 0 -490 -84 -1120 -185 l-1145 -184 -542 90 c-298 50 -546 90 -550 91 -24 3 2495 237 2562 238 44 0 235 -10 425 -24z m1025 -85 c236 -17 434 -32 438 -33 4 -1 -353 -131 -793 -288 l-802 -286 -748 126 c-412 69 -746 128 -744 131 6 5 2165 378 2199 379 11 1 213 -13 450 -29z m515 -399 l0 -349 -817 -763 c-449 -420 -821 -765 -825 -767 -4 -2 -8 367 -8 821 l0 824 813 291 c446 160 818 291 825 291 9 1 12 -75 12 -348z m-4022 157 l562 -93 0 -277 0 -277 -52 18 c-169 58 -359 152 -374 184 -15 32 -39 43 -68 29 -35 -16 -36 -65 -2 -87 13 -8 30 -13 38 -10 8 3 66 -19 129 -49 63 -31 162 -73 219 -95 l105 -40 3 -331 c2 -314 1 -332 -15 -326 -10 4 -273 108 -585 233 l-568 225 0 500 0 500 23 -5 c12 -3 275 -47 585 -99z m1832 96 c-24 -6 -1011 -175 -1065 -182 l-50 -7 -3 -298 c-2 -278 -3 -298 -20 -293 -9 3 -36 10 -60 16 l-42 11 2 282 3 282 595 96 c327 53 609 97 625 97 17 0 23 -2 15 -4z m-268 -361 l768 -128 0 -834 c0 -789 -1 -833 -17 -827 -10 4 -208 82 -440 174 l-423 167 0 53 c0 67 -12 90 -57 108 -19 9 -36 14 -37 12 -2 -2 -9 -18 -16 -37 -11 -26 -11 -36 -2 -39 25 -8 54 -39 51 -54 -3 -13 -63 7 -324 111 l-320 126 -3 344 c-2 286 0 342 11 338 8 -3 80 -18 160 -34 81 -15 147 -32 147 -37 0 -5 -10 -25 -22 -44 -12 -20 -18 -33 -12 -30 5 3 75 18 156 33 81 15 145 31 143 36 -4 6 -225 133 -256 147 -4 2 -4 -18 -1 -43 5 -44 4 -46 -19 -41 -13 3 -71 14 -129 26 -58 12 -122 26 -142 31 l-38 10 0 286 0 285 28 -5 c15 -3 372 -63 794 -134z m-894 -463 l42 -11 0 -274 0 -275 -24 10 c-22 8 -26 6 -36 -26 -10 -29 -35 -54 -54 -54 -3 0 -6 147 -6 326 0 305 1 325 18 320 9 -3 36 -10 60 -16z m66 -886 c73 -72 -23 -384 -131 -425 -60 -23 -100 40 -88 138 13 103 75 246 123 284 30 23 75 25 96 3z"/>
 <path d="M575 2421 c-3 -6 14 -11 37 -13 l43 -3 3 -119 c1 -66 -1 -123 -6 -128 -4 -4 -23 -3 -41 3 -17 6 -35 9 -38 5 -6 -6 71 -42 113 -52 l24 -6 0 151 0 151 45 0 c25 0 45 5 45 10 0 13 -217 13 -225 1z"/>
 <path d="M297 2073 c-4 -3 -7 -36 -7 -73 l0 -67 117 -42 c64 -23 118 -40 120 -38 2 3 -47 22 -109 44 l-113 40 -3 62 c-2 33 1 61 5 61 5 0 109 -34 232 -75 150 -50 233 -73 250 -69 21 4 23 3 11 -5 -12 -9 -8 -10 15 -5 23 4 27 3 15 -5 -12 -9 -8 -10 15 -5 23 4 27 3 15 -5 -12 -9 -8 -10 15 -5 23 4 27 3 15 -5 -12 -9 -8 -10 15 -5 23 4 27 3 15 -5 -12 -9 -8 -10 15 -5 23 4 27 3 15 -5 -12 -9 -8 -10 15 -5 23 4 27 3 15 -5 -12 -9 -8 -10 15 -5 23 4 27 3 15 -5 -12 -9 -8 -10 15 -5 24 4 27 3 15 -6 -13 -10 -12 -11 3 -6 10 3 24 6 30 7 7 0 -87 34 -207 75 -146 49 -228 72 -245 68 -21 -4 -23 -3 -11 5 12 9 8 10 -15 5 -18 -3 -25 -2 -18 3 8 6 -32 23 -115 51 -129 42 -153 48 -165 35z m419 -127 c38 -14 64 -25 58 -25 -5 -1 -41 10 -80 23 -38 14 -64 25 -58 25 5 1 41 -10 80 -23z"/>
 <path d="M540 1847 c0 -7 122 -48 127 -43 3 2 -20 12 -49 21 -29 10 -59 20 -65 23 -7 2 -13 2 -13 -1z"/>
 <path d="M1135 1810 c29 -11 42 -19 30 -20 -16 -1 -15 -3 8 -12 26 -9 27 -12 27 -84 0 -41 -2 -74 -3 -74 -2 0 -30 9 -62 20 -32 11 -60 18 -62 16 -9 -9 128 -47 147 -41 19 6 21 13 18 88 l-3 82 -60 22 c-33 12 -67 22 -75 22 -8 0 8 -9 35 -19z m95 -109 c0 -39 -4 -73 -10 -76 -6 -4 -10 22 -10 69 0 44 4 76 10 76 6 0 10 -30 10 -69z"/>
 <path d="M680 1797 c0 -7 122 -48 127 -43 3 2 -20 12 -49 21 -29 10 -59 20 -65 23 -7 2 -13 2 -13 -1z"/>
 <path d="M845 1736 c17 -7 41 -16 55 -20 20 -5 19 -3 -5 8 -16 7 -41 16 -55 20 -20 5 -19 3 5 -8z"/>
 <path d="M930 1707 c0 -7 122 -48 127 -43 3 2 -20 12 -49 21 -29 10 -59 20 -65 23 -7 2 -13 2 -13 -1z"/>
 <path d="M2240 2031 c0 -13 29 -40 93 -83 103 -72 137 -113 137 -168 0 -53 -18 -72 -76 -77 -61 -6 -104 9 -104 37 0 11 -7 20 -15 20 -21 0 -21 -66 1 -74 29 -11 174 -6 207 7 44 19 59 40 59 83 0 52 -25 80 -142 159 l-105 70 133 3 c120 2 133 4 130 20 -3 15 -21 17 -161 20 -150 2 -157 2 -157 -17z"/>
 <path d="M1678 1639 c-15 -8 -18 -24 -18 -83 l0 -72 52 -17 c29 -9 54 -15 56 -13 2 2 -19 12 -47 21 l-51 17 0 65 c0 48 3 64 13 61 55 -21 119 -39 123 -36 2 3 -23 13 -56 23 -33 10 -60 22 -60 27 0 11 -2 11 65 -12 32 -11 63 -20 69 -19 10 0 -57 26 -109 42 -11 3 -28 2 -37 -4z"/>
 <path d="M2020 1535 c19 -7 42 -13 50 -13 8 0 -1 6 -20 13 -19 7 -42 13 -50 13 -8 0 1 -6 20 -13z"/>
 <path d="M1835 1426 c17 -7 41 -16 55 -20 20 -5 19 -3 -5 8 -16 7 -41 16 -55 20 -20 5 -19 3 5 -8z"/>
 <path d="M270 1657 c0 -2 -43 -127 -95 -277 -96 -275 -100 -295 -56 -287 8 1 51 110 107 272 51 148 92 270 91 271 -11 8 -47 24 -47 21z"/>
 <path d="M341 1318 c-89 -257 -93 -272 -76 -285 27 -19 31 -17 45 30 l13 42 12 -50 c26 -99 97 -123 164 -56 l39 39 7 -51 c9 -65 47 -107 97 -107 39 0 76 30 112 93 32 55 158 416 152 434 -3 7 -14 13 -24 13 -16 0 -30 -30 -77 -166 -72 -209 -78 -225 -111 -263 -31 -37 -72 -41 -100 -10 -15 17 -19 35 -18 88 1 53 12 98 56 226 31 88 59 168 63 177 5 13 1 20 -16 27 -16 6 -26 5 -30 -3 -4 -6 -32 -85 -64 -176 -64 -186 -96 -255 -124 -270 -58 -30 -101 12 -101 99 0 43 14 98 62 239 54 156 61 184 48 192 -8 5 -19 10 -25 10 -5 0 -52 -122 -104 -272z"/>
 <path d="M1026 1329 c-34 -27 -70 -98 -85 -168 -21 -98 15 -160 114 -199 58 -23 62 -43 20 -98 -45 -59 -104 -56 -171 8 l-32 30 -11 -32 c-13 -38 -4 -60 39 -90 68 -49 126 -46 183 8 41 39 67 94 137 296 50 144 60 180 49 187 -26 16 -37 9 -50 -28 -7 -22 -14 -31 -16 -23 -18 66 -38 102 -63 115 -40 21 -83 19 -114 -6z m109 -76 c35 -35 43 -86 25 -170 -17 -77 -20 -79 -76 -58 -67 25 -94 55 -94 102 0 46 31 117 57 132 27 16 69 13 88 -6z"/>
 <path d="M1768 1063 c-14 -4 -38 -49 -38 -73 0 -4 22 -5 50 -2 97 9 151 -40 130 -118 -14 -53 -43 -70 -136 -79 -73 -7 -79 -9 -109 -44 -53 -61 -71 -166 -40 -226 18 -35 88 -71 139 -71 33 0 39 4 52 35 19 47 19 48 -21 41 -49 -10 -122 23 -131 58 -8 33 1 67 25 97 15 19 32 24 96 30 95 9 120 25 158 100 48 92 28 187 -49 230 -30 17 -96 28 -126 22z"/>
 <path d="M29 963 c-23 -60 -23 -81 1 -88 12 -4 23 -5 24 -3 5 6 36 101 33 103 -1 2 -12 6 -24 9 -19 6 -25 2 -34 -21z"/>
 <path d="M2362 538 c-88 -255 -93 -273 -76 -285 26 -19 30 -17 44 30 l13 42 13 -50 c16 -60 52 -95 98 -95 76 0 113 59 206 327 69 197 72 218 31 210 -8 -1 -32 -55 -57 -127 -87 -248 -96 -271 -124 -300 -35 -37 -72 -39 -105 -5 -43 42 -35 108 38 322 53 157 60 185 47 193 -8 5 -19 10 -25 10 -5 0 -52 -123 -103 -272z"/>
 <path d="M2864 610 c-110 -70 -205 -345 -163 -471 22 -65 82 -109 148 -109 31 0 61 30 61 61 0 14 -9 17 -43 16 -51 -2 -93 22 -108 61 -38 96 48 334 134 376 45 21 78 13 117 -25 15 -16 31 -29 33 -29 3 0 10 14 16 32 10 28 8 34 -11 56 -51 54 -128 68 -184 32z"/>
 </g>
<g id="layer102" fill="#373749" stroke="none">
 <path d="M2236 1441 c12 -11 234 -84 239 -79 2 2 -53 23 -122 46 -70 23 -122 38 -117 33z"/>
 <path d="M2386 1421 c12 -11 144 -54 149 -49 3 2 -32 16 -77 31 -45 14 -77 23 -72 18z"/>
 <path d="M2645 1334 c54 -19 104 -34 110 -33 5 0 -35 16 -90 35 -54 19 -104 34 -110 33 -5 0 35 -16 90 -35z"/>
 <path d="M2280 1271 c0 -4 39 -20 88 -35 48 -16 94 -31 102 -34 8 -3 13 -3 10 1 -9 10 -200 75 -200 68z"/>
 <path d="M2898 1198 c5 -113 9 -125 10 -30 1 50 -1 92 -5 92 -5 0 -7 -28 -5 -62z"/>
 <path d="M2491 1197 c8 -10 151 -58 156 -53 2 2 -26 14 -64 26 -37 13 -75 25 -83 28 -8 3 -12 2 -9 -1z"/>
 </g>
<g id="layer103" fill="#60607b" stroke="none">
 <path d="M1220 1698 c-3 -42 -1 -73 3 -69 4 4 7 39 5 77 l-3 69 -5 -77z"/>
 <path d="M1188 1690 c-2 -39 0 -70 5 -70 4 0 7 32 7 70 0 39 -2 70 -4 70 -2 0 -6 -32 -8 -70z"/>
 <path d="M1653 1560 c0 -41 2 -58 4 -37 2 20 2 54 0 75 -2 20 -4 3 -4 -38z"/>
 <path d="M2873 1155 c0 -44 2 -61 4 -37 2 23 2 59 0 80 -2 20 -4 1 -4 -43z"/>
 </g>
<g id="layer104" fill="#8686bf" stroke="none">
 <path d="M200 2312 l0 -500 568 -225 c312 -125 575 -229 585 -233 16 -6 17 12 15 326 l-3 331 -105 40 c-57 22 -156 64 -219 95 -63 30 -121 52 -129 49 -8 -3 -25 2 -38 10 -34 22 -33 71 2 87 29 14 53 3 68 -29 15 -32 205 -126 374 -184 l52 -18 0 277 0 277 -562 93 c-310 52 -573 96 -585 99 l-23 5 0 -500z m600 108 c0 -5 -20 -10 -45 -10 l-45 0 0 -151 0 -151 -24 6 c-42 10 -119 46 -113 52 3 4 21 1 38 -5 18 -6 37 -7 41 -3 5 5 7 62 6 128 l-3 119 -47 3 c-27 2 -48 7 -48 13 0 5 51 9 120 9 73 0 120 -4 120 -10z m98 -519 l342 -112 0 -88 c0 -79 -2 -89 -19 -94 -11 -3 -219 67 -473 158 l-453 162 -3 76 c-2 66 -1 76 15 79 19 4 71 -12 591 -181z"/>
 <path d="M1550 2297 l0 -286 38 -10 c20 -5 84 -19 142 -31 58 -12 116 -23 129 -26 23 -5 24 -3 19 41 -3 25 -3 45 1 43 31 -14 252 -141 256 -147 2 -5 -62 -21 -143 -36 -81 -15 -151 -30 -156 -33 -6 -3 0 10 12 30 12 19 22 39 22 44 0 5 -66 22 -147 37 -80 16 -152 31 -160 34 -11 4 -13 -52 -11 -338 l3 -344 320 -126 c261 -104 321 -124 324 -111 3 15 -26 46 -51 54 -9 3 -9 13 2 39 7 19 14 35 16 37 1 2 18 -3 37 -12 45 -18 57 -41 57 -108 l0 -53 423 -167 c232 -92 430 -170 440 -174 16 -6 17 38 17 827 l0 834 -768 128 c-422 71 -779 131 -794 134 l-28 5 0 -285z m1008 -269 c3 -16 -10 -18 -130 -20 l-133 -3 105 -70 c117 -79 142 -107 142 -159 0 -43 -15 -64 -59 -83 -33 -13 -178 -18 -207 -7 -22 8 -22 74 -1 74 8 0 15 -9 15 -20 0 -28 43 -43 104 -37 58 5 76 24 76 77 0 55 -34 96 -137 168 -64 43 -93 70 -93 83 0 19 7 19 157 17 140 -3 158 -5 161 -20z m-602 -459 c137 -44 408 -132 602 -195 l352 -115 0 -90 c0 -83 -2 -90 -22 -100 -19 -8 -121 25 -598 191 -316 111 -590 208 -607 215 -33 14 -33 14 -33 84 0 70 10 90 46 91 7 0 124 -36 260 -81z"/>
 <path d="M2228 1452 c294 -98 531 -180 527 -184 -4 -4 3 -4 16 -1 15 4 20 3 15 -5 -4 -7 -2 -10 6 -7 8 3 33 -1 57 -10 53 -18 56 -19 39 -2 -7 8 -43 23 -78 35 -455 147 -1100 352 -1107 351 -4 0 232 -80 525 -177z"/>
 </g>
<g id="layer105" fill="#afafde" stroke="none">
 <path d="M1547 2942 c-683 -64 -1228 -120 -1215 -124 13 -4 257 -45 543 -92 l520 -86 1145 184 c630 101 1134 185 1120 185 -14 1 -180 12 -370 26 -190 14 -381 24 -425 24 -44 -1 -637 -53 -1318 -117z"/>
 <path d="M2758 2792 c-598 -103 -1089 -189 -1092 -192 -2 -3 332 -62 744 -131 l748 -126 802 286 c440 157 797 287 793 288 -12 4 -865 63 -888 62 -11 0 -509 -85 -1107 -187z"/>
 <path d="M2158 2728 c9 -9 15 -9 24 0 9 9 7 12 -12 12 -19 0 -21 -3 -12 -12z"/>
 <path d="M301 1998 c1 -68 6 -61 11 15 2 26 0 47 -4 47 -5 0 -7 -28 -7 -62z"/>
 <path d="M2863 1150 c0 -47 2 -66 4 -42 2 23 2 61 0 85 -2 23 -4 4 -4 -43z"/>
 </g>
<g id="layer106" fill="#d9d9ff" stroke="none">
 <path d="M4790 2893 c-8 -3 -28 -11 -45 -18 -16 -7 -375 -135 -797 -285 l-768 -273 0 -824 c0 -454 4 -823 8 -821 4 2 376 347 825 767 l817 763 0 349 c0 363 1 357 -40 342z"/>
 <path d="M1765 2670 c-93 -15 -213 -34 -265 -41 l-95 -14 -3 -282 -2 -282 42 -11 c24 -6 51 -13 60 -16 17 -5 18 15 20 293 l3 298 45 7 c148 24 420 76 395 76 -16 0 -106 -13 -200 -28z"/>
 <path d="M310 1996 c0 -50 2 -55 28 -64 15 -5 210 -75 434 -156 224 -80 410 -146 413 -146 3 0 5 31 5 68 l0 68 -433 142 c-239 78 -437 142 -440 142 -4 0 -7 -24 -7 -54z"/>
 <path d="M1400 1676 c0 -179 3 -326 6 -326 19 0 44 25 54 54 10 32 14 34 36 26 l24 -10 0 275 0 274 -42 11 c-24 6 -51 13 -60 16 -17 5 -18 -15 -18 -320z"/>
 <path d="M1213 1700 c0 -41 2 -58 4 -37 2 20 2 54 0 75 -2 20 -4 3 -4 -38z"/>
 <path d="M1672 1553 l3 -56 575 -204 c316 -111 583 -205 593 -209 15 -5 17 3 17 70 l0 74 -47 16 c-27 8 -290 94 -587 190 -296 97 -542 176 -548 176 -5 0 -8 -26 -6 -57z"/>
 <path d="M2880 1160 c0 -40 4 -70 10 -70 6 0 10 30 10 70 0 40 -4 70 -10 70 -6 0 -10 -30 -10 -70z"/>
 </g>

</svg>