<!DOCTYPE svg PUBLIC "-//W3C//DTD SVG 20010904//EN" "http://www.w3.org/TR/2001/REC-SVG-20010904/DTD/svg10.dtd">
<svg version="1.0" xmlns="http://www.w3.org/2000/svg" width="486px" height="309px" viewBox="0 0 4860 3090" preserveAspectRatio="xMidYMid meet">
<g id="layer101" fill="#010102" stroke="none">
<path d="M2818 3085 c-2 -2 -597 -58 -1323 -126 -726 -67 -1321 -123 -1322 -124 -2 -1 -3 -235 -3 -520 l-1 -518 588 -234 c323 -128 598 -238 610 -245 17 -8 26 -8 38 2 8 7 18 10 22 7 3 -4 -45 -153 -107 -332 -62 -179 -111 -327 -109 -329 2 -2 14 -6 26 -10 18 -6 23 -1 33 30 l12 36 18 -51 c21 -62 42 -80 93 -81 128 -1 277 338 225 512 -23 77 -98 102 -157 52 -17 -14 -31 -22 -31 -17 0 13 67 210 77 225 5 8 10 -10 13 -47 l5 -60 338 -133 337 -134 0 -36 c0 -31 -29 -80 -164 -287 -90 -137 -161 -253 -157 -256 3 -4 15 -9 26 -13 17 -5 38 23 145 190 68 108 126 192 128 186 1 -5 -6 -99 -18 -208 -26 -254 -26 -260 2 -267 12 -4 23 -5 24 -4 1 1 16 151 34 332 18 182 34 332 36 334 2 2 207 -76 455 -174 314 -125 454 -176 464 -169 7 5 389 360 848 789 l835 780 1 378 1 377 -22 0 c-13 0 -241 16 -507 35 -267 19 -487 33 -489 30 -3 -3 -11 0 -18 6 -15 12 -995 85 -1006 74z m-1274 -1991 c73 -72 -23 -384 -131 -425 -60 -23 -100 40 -88 138 13 103 75 246 123 284 30 23 75 25 96 3z"/>
<path d="M270 1657 c0 -2 -43 -127 -95 -277 -96 -275 -100 -295 -56 -287 8 1 51 110 107 272 51 148 92 270 91 271 -11 8 -47 24 -47 21z"/>
<path d="M341 1318 c-89 -257 -93 -272 -76 -285 27 -19 31 -17 45 30 l13 42 12 -50 c26 -99 97 -123 164 -56 l39 39 7 -51 c9 -65 47 -107 97 -107 39 0 76 30 112 93 32 55 158 416 152 434 -3 7 -14 13 -24 13 -16 0 -30 -30 -77 -166 -72 -209 -78 -225 -111 -263 -31 -37 -72 -41 -100 -10 -15 17 -19 35 -18 88 1 53 12 98 56 226 31 88 59 168 63 177 5 13 1 20 -16 27 -16 6 -26 5 -30 -3 -4 -6 -32 -85 -64 -176 -64 -186 -96 -255 -124 -270 -58 -30 -101 12 -101 99 0 43 14 98 62 239 54 156 61 184 48 192 -8 5 -19 10 -25 10 -5 0 -52 -122 -104 -272z"/>
<path d="M1026 1329 c-34 -27 -70 -98 -85 -168 -21 -98 15 -160 114 -199 58 -23 62 -43 20 -98 -45 -59 -104 -56 -171 8 l-32 30 -11 -32 c-13 -38 -4 -60 39 -90 68 -49 126 -46 183 8 41 39 67 94 137 296 50 144 60 180 49 187 -26 16 -37 9 -50 -28 -7 -22 -14 -31 -16 -23 -18 66 -38 102 -63 115 -40 21 -83 19 -114 -6z m109 -76 c35 -35 43 -86 25 -170 -17 -77 -20 -79 -76 -58 -67 25 -94 55 -94 102 0 46 31 117 57 132 27 16 69 13 88 -6z"/>
<path d="M1768 1063 c-14 -4 -38 -49 -38 -73 0 -4 22 -5 50 -2 97 9 151 -40 130 -118 -14 -53 -43 -70 -136 -79 -73 -7 -79 -9 -109 -44 -53 -61 -71 -166 -40 -226 18 -35 88 -71 139 -71 33 0 39 4 52 35 19 47 19 48 -21 41 -49 -10 -122 23 -131 58 -8 33 1 67 25 97 15 19 32 24 96 30 95 9 120 25 158 100 48 92 28 187 -49 230 -30 17 -96 28 -126 22z"/>
<path d="M29 963 c-23 -60 -23 -81 1 -88 12 -4 23 -5 24 -3 5 6 36 101 33 103 -1 2 -12 6 -24 9 -19 6 -25 2 -34 -21z"/>
<path d="M2362 538 c-88 -255 -93 -273 -76 -285 26 -19 30 -17 44 30 l13 42 13 -50 c16 -60 52 -95 98 -95 76 0 113 59 206 327 69 197 72 218 31 210 -8 -1 -32 -55 -57 -127 -87 -248 -96 -271 -124 -300 -35 -37 -72 -39 -105 -5 -43 42 -35 108 38 322 53 157 60 185 47 193 -8 5 -19 10 -25 10 -5 0 -52 -123 -103 -272z"/>
<path d="M2864 610 c-110 -70 -205 -345 -163 -471 22 -65 82 -109 148 -109 31 0 61 30 61 61 0 14 -9 17 -43 16 -51 -2 -93 22 -108 61 -38 96 48 334 134 376 45 21 78 13 117 -25 15 -16 31 -29 33 -29 3 0 10 14 16 32 10 28 8 34 -11 56 -51 54 -128 68 -184 32z"/>
</g>
<g id="layer102" fill="#373749" stroke="none">
<path d="M200 2312 l0 -500 568 -225 c312 -125 575 -229 585 -233 16 -6 17 12 15 326 l-3 331 -105 40 c-57 22 -156 64 -219 95 -63 30 -121 52 -129 49 -8 -3 -25 2 -38 10 -34 22 -33 71 2 87 29 14 53 3 68 -29 15 -32 205 -126 374 -184 l52 -18 0 277 0 277 -562 93 c-310 52 -573 96 -585 99 l-23 5 0 -500z m600 108 c0 -5 -20 -10 -45 -10 l-45 0 0 -151 0 -151 -24 6 c-42 10 -119 46 -113 52 3 4 21 1 38 -5 18 -6 37 -7 41 -3 5 5 7 62 6 128 l-3 119 -43 3 c-23 2 -40 7 -37 13 8 12 225 12 225 -1z m-338 -382 c83 -28 123 -45 115 -51 -7 -5 0 -6 18 -3 23 5 27 4 15 -5 -12 -8 -10 -9 11 -5 17 4 99 -19 245 -68 120 -41 214 -75 207 -75 -6 -1 -20 -4 -30 -7 -15 -5 -16 -4 -3 6 12 9 9 10 -15 6 -23 -5 -27 -4 -15 5 12 8 8 9 -15 5 -23 -5 -27 -4 -15 5 12 8 8 9 -15 5 -23 -5 -27 -4 -15 5 12 8 8 9 -15 5 -23 -5 -27 -4 -15 5 12 8 8 9 -15 5 -23 -5 -27 -4 -15 5 12 8 8 9 -15 5 -23 -5 -27 -4 -15 5 12 8 8 9 -15 5 -23 -5 -27 -4 -15 5 12 8 8 9 -15 5 -23 -5 -27 -4 -15 5 12 8 10 9 -11 5 -17 -4 -100 19 -250 69 -123 41 -227 75 -232 75 -4 0 -7 -28 -5 -61 l3 -62 113 -40 c62 -22 111 -41 109 -44 -2 -2 -56 15 -120 38 l-117 42 0 67 c0 37 3 70 7 73 12 13 36 7 165 -35z m156 -213 c29 -9 52 -19 49 -21 -5 -5 -127 36 -127 43 0 3 6 3 13 1 6 -3 36 -13 65 -23z m557 -18 l60 -22 3 -82 c3 -75 1 -82 -18 -88 -19 -6 -156 32 -147 41 2 2 30 -5 62 -16 32 -11 60 -20 62 -20 1 0 3 33 3 74 0 72 -1 75 -27 84 -23 9 -24 11 -8 12 12 1 -1 9 -30 20 -27 10 -43 19 -35 19 8 0 42 -10 75 -22z m-417 -32 c29 -9 52 -19 49 -21 -5 -5 -127 36 -127 43 0 3 6 3 13 1 6 -3 36 -13 65 -23z m137 -51 c24 -11 25 -13 5 -8 -14 4 -38 13 -55 20 -24 11 -25 13 -5 8 14 -4 39 -13 55 -20z m113 -39 c29 -9 52 -19 49 -21 -5 -5 -127 36 -127 43 0 3 6 3 13 1 6 -3 36 -13 65 -23z"/>
<path d="M694 1944 c39 -13 75 -24 80 -23 6 0 -20 11 -58 25 -39 13 -75 24 -80 23 -6 0 20 -11 58 -25z"/>
<path d="M1550 2297 l0 -286 38 -10 c20 -5 84 -19 142 -31 58 -12 116 -23 129 -26 23 -5 24 -3 19 41 -3 25 -3 45 1 43 31 -14 252 -141 256 -147 2 -5 -62 -21 -143 -36 -81 -15 -151 -30 -156 -33 -6 -3 0 10 12 30 12 19 22 39 22 44 0 5 -66 22 -147 37 -80 16 -152 31 -160 34 -11 4 -13 -52 -11 -338 l3 -344 320 -126 c261 -104 321 -124 324 -111 3 15 -26 46 -51 54 -9 3 -9 13 2 39 7 19 14 35 16 37 1 2 18 -3 37 -12 45 -18 57 -41 57 -108 l0 -53 423 -167 c232 -92 430 -170 440 -174 16 -6 17 38 17 827 l0 834 -768 128 c-422 71 -779 131 -794 134 l-28 5 0 -285z m1008 -269 c3 -16 -10 -18 -130 -20 l-133 -3 105 -70 c117 -79 142 -107 142 -159 0 -43 -15 -64 -59 -83 -33 -13 -178 -18 -207 -7 -22 8 -22 74 -1 74 8 0 15 -9 15 -20 0 -28 43 -43 104 -37 58 5 76 24 76 77 0 55 -34 96 -137 168 -64 43 -93 70 -93 83 0 19 7 19 157 17 140 -3 158 -5 161 -20z m-773 -409 c28 -10 45 -18 39 -18 -6 -1 -37 8 -69 19 -67 23 -65 23 -65 12 0 -5 27 -17 60 -27 33 -10 58 -20 56 -23 -4 -3 -68 15 -123 36 -10 3 -13 -13 -13 -61 l0 -65 51 -17 c28 -9 49 -19 47 -21 -2 -2 -27 4 -56 13 l-52 17 0 72 c0 59 3 75 18 83 18 11 26 9 107 -20z m265 -84 c19 -7 28 -13 20 -13 -8 0 -31 6 -50 13 -19 7 -28 13 -20 13 8 0 31 -6 50 -13z m-165 -121 c24 -11 25 -13 5 -8 -14 4 -38 13 -55 20 -24 11 -25 13 -5 8 14 -4 39 -13 55 -20z"/>
</g>
<g id="layer103" fill="#60607b" stroke="none">
<path d="M200 2312 l0 -500 568 -225 c312 -125 575 -229 585 -233 16 -6 17 12 15 326 l-3 331 -105 40 c-57 22 -156 64 -219 95 -63 30 -121 52 -129 49 -8 -3 -25 2 -38 10 -34 22 -33 71 2 87 29 14 53 3 68 -29 15 -32 205 -126 374 -184 l52 -18 0 277 0 277 -562 93 c-310 52 -573 96 -585 99 l-23 5 0 -500z m600 108 c0 -5 -20 -10 -45 -10 l-45 0 0 -151 0 -151 -24 6 c-42 10 -119 46 -113 52 3 4 21 1 38 -5 18 -6 37 -7 41 -3 5 5 7 62 6 128 l-3 119 -42 3 c-24 2 -43 7 -43 13 0 5 50 9 115 9 70 0 115 -4 115 -10z m-8 -487 l449 -147 -3 -86 c-3 -80 -4 -85 -26 -88 -16 -3 -716 240 -904 313 -15 6 -18 20 -18 81 0 73 0 74 26 74 15 0 229 -66 476 -147z"/>
<path d="M300 2001 c0 -46 4 -60 17 -65 9 -4 206 -75 437 -158 232 -83 427 -153 434 -156 10 -3 12 12 10 69 l-3 74 -440 147 c-242 81 -443 148 -447 148 -5 0 -8 -27 -8 -59z"/>
<path d="M1210 1694 c0 -47 4 -73 10 -69 6 3 10 37 10 76 0 39 -4 69 -10 69 -6 0 -10 -32 -10 -76z"/>
<path d="M1550 2297 l0 -286 38 -10 c20 -5 84 -19 142 -31 58 -12 116 -23 129 -26 23 -5 24 -3 19 41 -3 25 -3 45 1 43 31 -14 252 -141 256 -147 2 -5 -62 -21 -143 -36 -81 -15 -151 -30 -156 -33 -6 -3 0 10 12 30 12 19 22 39 22 44 0 5 -66 22 -147 37 -80 16 -152 31 -160 34 -11 4 -13 -52 -11 -338 l3 -344 320 -126 c261 -104 321 -124 324 -111 3 15 -26 46 -51 54 -9 3 -9 13 2 39 7 19 14 35 16 37 1 2 18 -3 37 -12 45 -18 57 -41 57 -108 l0 -53 423 -167 c232 -92 430 -170 440 -174 16 -6 17 38 17 827 l0 834 -768 128 c-422 71 -779 131 -794 134 l-28 5 0 -285z m1008 -269 c3 -16 -10 -18 -130 -20 l-133 -3 105 -70 c117 -79 142 -107 142 -159 0 -43 -15 -64 -59 -83 -33 -13 -178 -18 -207 -7 -22 8 -22 74 -1 74 8 0 15 -9 15 -20 0 -28 43 -43 104 -37 58 5 76 24 76 77 0 55 -34 96 -137 168 -64 43 -93 70 -93 83 0 19 7 19 157 17 140 -3 158 -5 161 -20z m-437 -515 c230 -75 417 -138 415 -140 -2 -3 -187 55 -410 126 -224 72 -414 131 -424 131 -9 0 163 -61 383 -134 220 -74 396 -135 391 -135 -7 -1 -745 238 -793 256 -10 4 -13 -12 -13 -59 l0 -65 405 -143 c223 -79 404 -145 402 -147 -3 -2 -187 60 -411 138 l-406 142 0 78 c0 65 3 78 18 82 9 3 19 5 21 6 2 0 192 -61 422 -136z m544 -177 c55 -19 95 -35 90 -35 -6 -1 -56 14 -110 33 -55 19 -95 35 -90 35 6 1 56 -14 110 -33z m243 -168 c-1 -95 -5 -83 -10 30 -2 34 0 62 5 62 4 0 6 -42 5 -92z m-325 2 c38 -12 66 -24 64 -26 -5 -5 -148 43 -156 53 -3 3 1 4 9 1 8 -3 46 -15 83 -28z"/>
</g>
<g id="layer104" fill="#8686bf" stroke="none">
<path d="M1540 2940 c-685 -65 -1242 -118 -1237 -119 4 -1 252 -41 550 -91 l542 -90 1145 184 c630 101 1134 185 1120 185 -14 1 -180 12 -370 26 -190 14 -381 24 -425 24 -44 -1 -640 -54 -1325 -119z"/>
<path d="M200 2312 l0 -500 568 -225 c312 -125 575 -229 585 -233 16 -6 17 12 15 326 l-3 331 -105 40 c-57 22 -156 64 -219 95 -63 30 -121 52 -129 49 -8 -3 -25 2 -38 10 -34 22 -33 71 2 87 29 14 53 3 68 -29 15 -32 205 -126 374 -184 l52 -18 0 277 0 277 -562 93 c-310 52 -573 96 -585 99 l-23 5 0 -500z m600 108 c0 -5 -20 -10 -45 -10 l-45 0 0 -151 0 -151 -24 6 c-42 10 -119 46 -113 52 3 4 21 1 38 -5 18 -6 37 -7 41 -3 5 5 7 62 6 128 l-3 119 -47 3 c-27 2 -48 7 -48 13 0 5 51 9 120 9 73 0 120 -4 120 -10z m98 -519 l342 -112 0 -88 c0 -79 -2 -89 -19 -94 -11 -3 -219 67 -473 158 l-453 162 -3 76 c-2 66 -1 76 15 79 19 4 71 -12 591 -181z"/>
<path d="M300 2003 l0 -60 438 -157 c240 -86 440 -156 445 -156 4 0 7 31 7 69 l0 68 -431 142 c-236 78 -437 145 -445 148 -11 4 -14 -7 -14 -54z"/>
<path d="M2000 2711 l-595 -96 -3 -282 -2 -282 42 -11 c24 -6 51 -13 60 -16 17 -5 18 15 20 293 l3 298 50 7 c54 7 1041 176 1065 182 8 2 2 4 -15 4 -16 0 -298 -44 -625 -97z"/>
<path d="M1550 2297 l0 -286 38 -10 c20 -5 84 -19 142 -31 58 -12 116 -23 129 -26 23 -5 24 -3 19 41 -3 25 -3 45 1 43 31 -14 252 -141 256 -147 2 -5 -62 -21 -143 -36 -81 -15 -151 -30 -156 -33 -6 -3 0 10 12 30 12 19 22 39 22 44 0 5 -66 22 -147 37 -80 16 -152 31 -160 34 -11 4 -13 -52 -11 -338 l3 -344 320 -126 c261 -104 321 -124 324 -111 3 15 -26 46 -51 54 -9 3 -9 13 2 39 7 19 14 35 16 37 1 2 18 -3 37 -12 45 -18 57 -41 57 -108 l0 -53 423 -167 c232 -92 430 -170 440 -174 16 -6 17 38 17 827 l0 834 -768 128 c-422 71 -779 131 -794 134 l-28 5 0 -285z m1008 -269 c3 -16 -10 -18 -130 -20 l-133 -3 105 -70 c117 -79 142 -107 142 -159 0 -43 -15 -64 -59 -83 -33 -13 -178 -18 -207 -7 -22 8 -22 74 -1 74 8 0 15 -9 15 -20 0 -28 43 -43 104 -37 58 5 76 24 76 77 0 55 -34 96 -137 168 -64 43 -93 70 -93 83 0 19 7 19 157 17 140 -3 158 -5 161 -20z m-602 -459 c137 -44 408 -132 602 -195 l352 -115 0 -90 c0 -83 -2 -90 -22 -100 -19 -8 -121 25 -598 191 -316 111 -590 208 -607 215 -33 14 -33 14 -33 84 0 70 10 90 46 91 7 0 124 -36 260 -81z"/>
<path d="M2280 1434 c322 -106 588 -194 593 -194 4 0 7 4 7 8 0 4 -30 18 -67 29 -38 12 -301 96 -585 187 -284 91 -520 166 -525 165 -4 0 255 -88 577 -195z"/>
<path d="M1670 1558 l0 -63 467 -165 c257 -91 527 -186 600 -212 l133 -47 0 79 0 79 -82 26 c-172 54 -1103 358 -1110 362 -5 2 -8 -24 -8 -59z"/>
<path d="M2880 1159 c0 -51 4 -78 10 -74 6 3 10 40 10 81 0 43 -4 74 -10 74 -6 0 -10 -34 -10 -81z"/>
</g>
<g id="layer105" fill="#afafde" stroke="none">
<path d="M1547 2942 c-683 -64 -1228 -120 -1215 -124 13 -4 257 -45 543 -92 l520 -86 1145 184 c630 101 1134 185 1120 185 -14 1 -180 12 -370 26 -190 14 -381 24 -425 24 -44 -1 -637 -53 -1318 -117z"/>
<path d="M2758 2792 c-598 -103 -1089 -189 -1092 -192 -2 -3 332 -62 744 -131 l748 -126 802 286 c440 157 797 287 793 288 -12 4 -865 63 -888 62 -11 0 -509 -85 -1107 -187z"/>
<path d="M3993 2608 l-813 -291 0 -824 c0 -454 4 -823 8 -821 4 2 376 347 825 767 l817 763 0 349 c0 273 -3 349 -12 348 -7 0 -379 -131 -825 -291z"/>
<path d="M2000 2711 l-595 -96 -3 -282 -2 -282 42 -11 c24 -6 51 -13 60 -16 17 -5 18 15 20 293 l3 298 50 7 c28 4 61 9 75 12 14 3 241 41 505 86 264 45 485 83 490 85 40 14 -128 -10 -645 -94z"/>
<path d="M300 2003 l0 -59 438 -157 c240 -87 440 -157 445 -157 4 0 7 31 7 68 l0 68 -432 143 c-238 79 -439 146 -445 148 -10 4 -13 -11 -13 -54z"/>
<path d="M1670 1558 l0 -63 598 -211 597 -211 3 75 c2 41 1 76 0 78 -2 1 -269 89 -593 194 -325 106 -593 194 -597 197 -5 2 -8 -24 -8 -59z"/>
</g>
<g id="layer106" fill="#d9d9ff" stroke="none">
<path d="M4790 2893 c-8 -3 -28 -11 -45 -18 -16 -7 -375 -135 -797 -285 l-768 -273 0 -824 c0 -454 4 -823 8 -821 4 2 376 347 825 767 l817 763 0 349 c0 363 1 357 -40 342z"/>
<path d="M1765 2670 c-93 -15 -213 -34 -265 -41 l-95 -14 -3 -282 -2 -282 42 -11 c24 -6 51 -13 60 -16 17 -5 18 15 20 293 l3 298 45 7 c148 24 420 76 395 76 -16 0 -106 -13 -200 -28z"/>
<path d="M310 1996 c0 -50 2 -55 28 -64 15 -5 210 -75 434 -156 224 -80 410 -146 413 -146 3 0 5 31 5 68 l0 68 -433 142 c-239 78 -437 142 -440 142 -4 0 -7 -24 -7 -54z"/>
<path d="M1400 1676 c0 -179 3 -326 6 -326 19 0 44 25 54 54 10 32 14 34 36 26 l24 -10 0 275 0 274 -42 11 c-24 6 -51 13 -60 16 -17 5 -18 -15 -18 -320z"/>
<path d="M1213 1700 c0 -41 2 -58 4 -37 2 20 2 54 0 75 -2 20 -4 3 -4 -38z"/>
<path d="M1672 1553 l3 -56 575 -204 c316 -111 583 -205 593 -209 15 -5 17 3 17 70 l0 74 -47 16 c-27 8 -290 94 -587 190 -296 97 -542 176 -548 176 -5 0 -8 -26 -6 -57z"/>
<path d="M2880 1160 c0 -40 4 -70 10 -70 6 0 10 30 10 70 0 40 -4 70 -10 70 -6 0 -10 -30 -10 -70z"/>
</g>


</svg>