<!DOCTYPE svg PUBLIC "-//W3C//DTD SVG 20010904//EN" "http://www.w3.org/TR/2001/REC-SVG-20010904/DTD/svg10.dtd">
<svg version="1.0" xmlns="http://www.w3.org/2000/svg" width="486px" height="309px" viewBox="0 0 4860 3090" preserveAspectRatio="xMidYMid meet">
<g id="layer101" fill="#010102" fill-rule="evenodd">
<path d="M2817 3085 C2816 3083,2221 3026,1495 2959 C769 2892,173 2836,172 2835 C171 2834,170 2600,169 2315 L169 1796 757 1563 C1080 1434,1354 1324,1367 1318 C1384 1309,1392 1310,1404 1319 C1413 1327,1423 1330,1426 1326 C1430 1323,1382 1173,1320 994 C1258 815,1209 667,1211 665 C1213 664,1224 659,1236 655 C1254 650,1260 654,1270 685 L1282 722 1299 670 C1320 609,1342 590,1392 590 C1520 589,1670 928,1618 1102 C1595 1178,1519 1203,1460 1154 C1443 1139,1430 1132,1430 1137 C1430 1150,1497 1347,1506 1362 C1511 1370,1516 1351,1520 1315 L1525 1255 1862 1121 L2200 988 2199 951 C2199 921,2171 871,2035 665 C1945 527,1875 412,1878 408 C1882 405,1894 399,1905 396 C1922 391,1943 419,2049 586 C2118 694,2175 777,2177 772 C2179 767,2171 673,2160 564 C2134 309,2134 303,2162 296 C2174 293,2184 291,2185 292 C2186 294,2202 443,2220 625 C2238 806,2254 956,2256 959 C2258 961,2462 882,2710 784 C3025 660,3165 608,3174 615 C3181 620,3563 976,4023 1405 L4858 2185 4859 2562 L4860 2940 4837 2940 C4825 2940,4597 2955,4330 2974 C4064 2994,3844 3007,3841 3005 C3839 3002,3831 3004,3824 3010 C3817 3016,3624 3034,3395 3050 C2868 3087,2820 3090,2817 3085 M305 2825 L305 2825 L310 2820 L332 2815C344 2813,588 2773,875 2725 L1395 2640 2540 2823 C3601 2993,3679 3007,3610 3012 C3568 3015,3384 3028,3200 3041 L2865 3063 1587 2946 L310 2830M2755 2792 C2159 2689,1669 2602,1666 2599 C1663 2597,1998 2538,2409 2469 L3158 2343 3959 2628 C4400 2786,4757 2915,4753 2917 C4743 2919,3889 2980,3860 2980 C3849 2980,3352 2895,2755 2792 M4725 2865 L4720 2860 L3950 2588L3180 2317 3180 1492 C3180 1039,3183 669,3188 671 C3192 673,3563 1018,4013 1438 L4830 2202 4830 2551 C4830 2743,4826 2900,4821 2900 C4816 2900,4793 2893,4771 2885 L4730 2870M200 2311 L199 1812 767 1586 C1079 1462,1342 1357,1352 1354 C1369 1348,1370 1366,1367 1679 L1365 2011 1260 2050 C1202 2072,1103 2115,1040 2145 C977 2175,919 2198,911 2195 C903 2192,886 2196,873 2205 C839 2227,841 2276,875 2292 C905 2305,929 2295,944 2262 C958 2231,1149 2137,1317 2079 L1370 2061 1370 2338 L1370 2615 810 2707 C502 2758,238 2802,225 2805 L200 2810 200 2311 M580 2420 L570 2420 L570 2410 L577 2410C581 2410,600 2409,620 2407 L655 2405 657 2285 C659 2220,656 2162,652 2158 C647 2153,629 2154,611 2161 C593 2167,576 2169,573 2166 C569 2163,588 2151,614 2140 C640 2129,672 2117,685 2113 L710 2107 710 2258 L710 2410 755 2410 C779 2410,800 2414,800 2420 C800 2426,760 2430,700 2430 C645 2430,595 2430,590 2430 L580 2430M300 2070 L290 2070 L295 2000L300 1930L310 1930 L310 1920 L315 1920C317 1920,322 1920,325 1920 L330 1920L340 1920 L340 1910 L345 1910C347 1910,352 1910,355 1910 L360 1910L370 1910 L370 1900 375 1895 L390 1900 400 1900 L400 1890 405 1885 L420 1890 L420 1880 L425 1880C427 1880,432 1880,435 1880 L440 1880L450 1880 L450 1870 L455 1870C457 1870,462 1870,465 1870 L470 1870L480 1870 L480 1860 L485 1860C487 1860,492 1860,495 1860 L500 1860L510 1860 L510 1850 515 1845 L530 1850 L530 1860 525 1865 L510 1860 L510 1870 505 1875 L490 1870 480 1870 L480 1880 475 1885 L460 1880 450 1880 L450 1890 445 1895 L430 1890 420 1890 L420 1900 415 1905 L400 1900 L400 1910 395 1915 L380 1910 370 1910 L370 1920 365 1925 L350 1920 340 1920 L340 1930 335 1935 L320 1930 L315 1930C312 1930,310 1932,310 1935 L310 1940L310 1940 L305 1940C302 1940,300 1967,300 2000 C300 2033,302 2060,305 2060 C307 2060,312 2060,315 2060 L320 2060L330 2060 L330 2050 335 2045 L350 2050 360 2050 L360 2040 365 2035 L380 2040 390 2040 L390 2030 395 2025 L410 2030 420 2030 L420 2020 425 2015 L440 2020 450 2020 L450 2010 455 2005 L470 2010 480 2010 L480 2000 485 1995 L500 2000 510 2000 L510 1990 515 1985 L530 1990 540 1990 L540 1980 545 1975 L560 1980 570 1980 L570 1970 575 1965 L590 1970 600 1970 L600 1960 605 1955 L620 1960 630 1960 L630 1950 635 1945 L650 1950 660 1950 L660 1940 665 1935 L680 1940 690 1940 L690 1930 L695 1930C697 1930,702 1930,705 1930 L710 1930L720 1930 L720 1920 L725 1920C727 1920,732 1920,735 1920 L740 1920L750 1920 L750 1910 L755 1910C757 1910,762 1910,765 1910 L770 1910L780 1910 L780 1915C780 1917,787 1919,797 1919 C807 1918,809 1916,802 1914 L790 1910L790 1900 795 1895 L810 1900 L810 1905C810 1907,817 1909,827 1909 C837 1908,839 1906,832 1904 L820 1900L820 1890 825 1885 L840 1890 L840 1895C840 1897,847 1899,857 1899 C867 1898,869 1896,862 1894 L850 1890L850 1880 855 1875 L870 1880 L870 1885C870 1887,877 1889,887 1889 C897 1888,899 1886,892 1884 L880 1880L880 1870 885 1865 L900 1870 L900 1875C900 1877,907 1879,917 1879 C927 1878,929 1876,922 1874 L910 1870L910 1860 915 1855 L930 1860 L930 1865C930 1867,937 1869,947 1869 C957 1868,959 1866,952 1864 L940 1860L940 1850 945 1845 L960 1850 L960 1855C960 1857,967 1859,977 1859 C987 1858,989 1856,982 1854 L970 1850L970 1840 975 1835 L990 1840 L990 1845C990 1847,997 1849,1007 1849 C1017 1848,1019 1846,1012 1844 L1000 1840L1000 1830 1005 1825 L1020 1830 L1020 1835C1020 1837,1027 1839,1037 1839 C1047 1838,1049 1836,1042 1834 L1030 1830L1030 1820 1035 1815 L1050 1820 L1065 1825L1080 1830L1080 1840 1075 1845 L1060 1840 1050 1840 L1050 1850 1045 1855 L1030 1850 1020 1850 L1020 1860 1015 1865 L1000 1860 990 1860 L990 1870 985 1875 L970 1870 960 1870 L960 1880 L955 1880C952 1880,947 1880,945 1880 L940 1880L930 1880 L930 1890 L925 1890C922 1890,917 1890,915 1890 L910 1890L900 1890 L900 1900 L895 1900C892 1900,887 1900,885 1900 L880 1900L870 1900 L870 1910 L865 1910C862 1910,857 1910,855 1910 L850 1910L840 1910 L840 1920 L835 1920C832 1920,827 1920,825 1920 L820 1920L810 1920 L810 1930 L805 1930C802 1930,797 1930,795 1930 L790 1930L780 1930 L780 1940 L775 1940C772 1940,767 1940,765 1940 L760 1940L750 1940 L750 1950 L745 1950C742 1950,737 1950,735 1950 L730 1950L720 1950 L720 1960 L715 1960C712 1960,707 1960,705 1960 L700 1960L690 1960 L690 1970 L685 1970C682 1970,677 1970,675 1970 L670 1970L660 1970 L660 1980 L655 1980C652 1980,647 1980,645 1980 L640 1980L630 1980 L619 1973C613 1970,606 1970,602 1973 C599 1977,601 1980,608 1980 L620 1980L620 1990 615 1995 L600 1990 L589 1983C583 1980,576 1980,572 1983 C569 1987,571 1990,578 1990 L590 1990L590 2000 585 2005 L570 2000 560 2000 L560 2010 555 2015 L540 2010 530 2010 L530 2020 525 2025 L510 2020 500 2020 L500 2030 L495 2030C492 2030,487 2030,485 2030 L480 2030L470 2030 L470 2040 L465 2040C462 2040,457 2040,455 2040 L450 2040L440 2040 L440 2050 L435 2050C432 2050,427 2050,425 2050 L420 2050L410 2050 L410 2060 L405 2060C402 2060,397 2060,395 2060 L390 2060L380 2060 L380 2070 L375 2070C372 2070,367 2070,365 2070 L360 2070L350 2070 L350 2080 L335 2080C326 2080,317 2080,315 2080 C312 2080,307 2080,305 2080 L300 2080M696 1945 C733 1931,768 1920,774 1920 C786 1921,654 1970,640 1970 C634 1970,660 1958,696 1945 M540 1840 L545 1835 L560 1840 L560 1830 L565 1830C567 1830,572 1830,575 1830 L580 1830L590 1830 L590 1820 L595 1820C597 1820,602 1820,605 1820 L610 1820L620 1820 L620 1810 L625 1810C627 1810,632 1810,635 1810 L640 1810L650 1810 L650 1800 655 1795 L670 1800 L670 1810 665 1815 L650 1810 L650 1820 645 1825 L630 1820 620 1820 L620 1830 615 1835 L600 1830 590 1830 L590 1840 585 1845 L570 1840 560 1840 L560 1850 555 1855 L540 1850 M1150 1780 L1155 1775 L1170 1780 1180 1780 L1180 1770 1185 1765 L1200 1770 L1200 1760 L1200 1740C1200 1729,1200 1697,1200 1670 C1200 1642,1195 1620,1190 1620 C1184 1620,1180 1622,1180 1625 L1180 1630L1182 1627 1175 1635 L1160 1630 1150 1630 L1150 1640 1145 1645 L1130 1640 1120 1640 L1120 1650 1115 1655 L1100 1650 1090 1650 L1090 1660 1085 1665 L1070 1660 L1070 1650 1075 1645 L1090 1650 L1090 1640 L1095 1640C1097 1640,1102 1640,1105 1640 L1110 1640L1120 1640 L1120 1630 L1125 1630C1127 1630,1132 1630,1135 1630 L1140 1630L1150 1630 L1150 1620 L1155 1620C1157 1620,1162 1620,1165 1620 L1170 1620L1185 1625 L1180 1610 1185 1605 L1200 1610 L1215 1605 1220 1610 L1215 1625 L1230 1620 L1240 1620 L1240 1675C1240 1705,1240 1732,1240 1735 C1240 1737,1240 1749,1240 1760 L1240 1780L1230 1780 L1230 1790 1225 1795 L1210 1790 L1210 1800 L1205 1800C1202 1800,1197 1800,1195 1800 L1190 1800L1180 1800 L1180 1810 L1175 1810C1172 1810,1167 1810,1165 1810 L1160 1810L1150 1810 L1150 1820 L1145 1820C1142 1820,1137 1820,1135 1820 L1130 1820L1120 1820 L1120 1830 L1115 1830C1112 1830,1107 1830,1105 1830 L1100 1830L1090 1830 L1092 1826C1093 1824,1115 1815,1140 1807 C1164 1798,1177 1791,1167 1790 L1150 1790M1210 1630 L1210 1625C1210 1622,1212 1620,1215 1620 C1217 1620,1220 1622,1220 1625 L1220 1630L1220 1630 L1225 1630C1227 1630,1230 1661,1230 1700 C1230 1738,1227 1770,1225 1770 L1220 1770L1220 1770 L1214 1707C1211 1673,1209 1641,1209 1637 L1210 1630M680 1790 L685 1785 L700 1790 L700 1780 L705 1780C707 1780,712 1780,715 1780 L720 1780L730 1780 L730 1770 L735 1770C737 1770,742 1770,745 1770 L750 1770L760 1770 L760 1760 L765 1760C767 1760,772 1760,775 1760 L780 1760L790 1760 L790 1750 795 1745 L810 1750 L810 1760 805 1765 L790 1760 L790 1770 785 1775 L770 1770 760 1770 L760 1780 755 1785 L740 1780 730 1780 L730 1790 725 1795 L710 1790 700 1790 L700 1800 695 1805 L680 1800 M820 1740 L825 1735 L840 1740 L840 1730 L845 1730C847 1730,852 1730,855 1730 L860 1730L870 1730 L870 1720 L875 1720C877 1720,882 1720,885 1720 L890 1720L900 1720 L900 1710 905 1705 L920 1710 L920 1720 915 1725 L900 1720 L900 1730 895 1735 L880 1730 870 1730 L870 1740 865 1745 L850 1740 840 1740 L840 1750 835 1755 L820 1750 M930 1700 L935 1695 L950 1700 L950 1690 L955 1690C957 1690,962 1690,965 1690 L970 1690L980 1690 L980 1680 L985 1680C987 1680,992 1680,995 1680 L1000 1680L1010 1680 L1010 1670 L1015 1670C1017 1670,1022 1670,1025 1670 L1030 1670L1040 1670 L1040 1660 1045 1655 L1060 1660 L1060 1670 1055 1675 L1040 1670 L1040 1680 1035 1685 L1020 1680 1010 1680 L1010 1690 1005 1695 L990 1690 980 1690 L980 1700 975 1705 L960 1700 950 1700 L950 1710 945 1715 L930 1710 M2190 2740 L2175 2740C2166 2740,2157 2740,2155 2740 C2152 2740,2150 2737,2150 2735 L2150 2730L2150 2730 L2060 2715L1970 2700L1970 2700 L1950 2700L1930 2700L1920 2700 L1915 2700C1912 2700,1907 2700,1905 2700 L1900 2700L1900 2690 L1885 2690L1870 2690L1860 2690 L1855 2690C1852 2690,1847 2690,1845 2690 L1840 2690L1840 2680 L1825 2680L1810 2680L1800 2680 L1795 2680C1792 2680,1787 2680,1785 2680 L1780 2680L1780 2670 L1765 2670L1750 2670L1740 2670 L1735 2670C1732 2670,1727 2670,1725 2670 L1720 2670L1720 2660 L1700 2660L1680 2660L1670 2660 L1665 2660C1662 2660,1657 2660,1655 2660 L1650 2660L1650 2650 L1635 2650L1620 2650L1610 2650 L1605 2650C1602 2650,1597 2650,1595 2650 L1590 2650L1590 2640 L1577 2640C1570 2640,1529 2634,1485 2627 L1405 2614 1402 2332 L1399 2050 1442 2039 C1465 2033,1492 2026,1502 2023 C1518 2019,1519 2039,1522 2316 L1525 2615 1555 2617 C1571 2619,1588 2620,1592 2620 L1600 2620L1605 2625 L1610 2630 L1625 2630L1640 2630L1650 2630 1655 2635 L1660 2640 L1680 2640L1700 2640L1705 2645 L1710 2650 L1730 2650L1750 2650L1760 2650 1765 2655 L1770 2660 L1790 2660L1810 2660L1820 2660 1825 2665 L1830 2670 L1850 2670L1870 2670L1880 2670 1885 2675 L1890 2680 L1910 2680L1930 2680L1940 2680 1945 2685 L1950 2690 L1970 2690L1990 2690L1990 2690 L2075 2705L2160 2720L2160 2720 L2165 2720C2169 2720,2175 2722,2180 2725 L2190 2730L2190 2730 L2197 2729C2201 2729,2305 2746,2428 2767 C2550 2787,2646 2806,2640 2808 C2635 2809,2543 2797,2437 2780 C2331 2763,2232 2747,2217 2744 L2190 2740M1550 2295 L1550 2010 1587 2001 C1608 1995,1672 1981,1730 1970 C1787 1958,1845 1946,1858 1943 C1881 1939,1882 1940,1877 1984 C1874 2010,1875 2029,1878 2027 C1909 2014,2130 1886,2134 1880 C2137 1876,2073 1860,1992 1844 C1911 1829,1840 1814,1835 1811 C1830 1808,1836 1822,1848 1841 C1860 1861,1870 1881,1870 1886 C1870 1891,1804 1907,1723 1923 C1642 1939,1570 1954,1563 1957 C1551 1961,1550 1905,1552 1618 L1555 1275 1875 1148 C2136 1045,2195 1024,2198 1037 C2202 1053,2173 1083,2147 1092 C2138 1095,2139 1104,2149 1130 C2157 1149,2164 1166,2165 1168 C2166 1169,2183 1164,2203 1156 C2247 1137,2259 1114,2260 1048 L2260 995 2682 827 C2914 735,3112 657,3122 654 C3139 648,3139 691,3139 1481 L3139 2315 2369 2442 C1946 2512,1588 2572,1575 2575 L1550 2580 1550 2295 M2240 2030 C2240 2017,2270 1990,2332 1947 C2436 1875,2470 1834,2470 1780 C2470 1726,2451 1708,2394 1702 C2332 1697,2290 1712,2290 1739 C2290 1751,2283 1760,2275 1760 C2253 1760,2254 1694,2275 1686 C2305 1674,2450 1679,2482 1693 C2526 1711,2542 1732,2542 1776 C2542 1828,2517 1856,2399 1935 L2295 2005 2428 2007 C2540 2010,2560 2012,2555 2025 C2551 2037,2518 2041,2395 2045 C2247 2049,2240 2049,2240 2030 M1690 1640 L1680 1645 1670 1640 L1670 1630 1660 1630 L1660 1630 L1660 1585C1660 1560,1660 1537,1660 1535 C1660 1532,1660 1521,1660 1510 L1660 1490L1660 1490 L1663 1485C1665 1482,1669 1480,1673 1480 L1680 1480L1690 1480 L1690 1470 L1695 1470C1697 1470,1702 1470,1705 1470 L1710 1470L1720 1470 L1720 1460 L1725 1460C1727 1460,1732 1460,1735 1460 L1740 1460L1750 1460 L1750 1450 1755 1445 L1770 1450 L1770 1460 1765 1465 L1750 1460 L1750 1470 1745 1475 L1730 1470 1720 1470 L1720 1480 1715 1485 L1700 1480 1690 1480 L1690 1490 1685 1495 L1670 1490 L1670 1500 L1670 1535C1670 1554,1670 1572,1670 1575 C1670 1577,1670 1586,1670 1595 L1670 1610L1670 1620 L1675 1620C1677 1620,1682 1620,1685 1620 L1690 1620L1690 1610 1695 1605 L1710 1610 1720 1610 L1720 1600 1725 1595 L1740 1600 1750 1600 L1750 1590 1755 1585 L1770 1590 1780 1590 L1780 1580 1785 1575 L1800 1580 L1805 1583C1807 1585,1783 1594,1750 1604 C1717 1614,1690 1627,1690 1632 C1690 1637,1695 1640,1702 1637 C1709 1634,1737 1625,1765 1616 C1792 1607,1818 1600,1822 1600 L1830 1600L1830 1610 1825 1615 L1810 1610 1800 1610 L1800 1620 L1795 1620C1792 1620,1787 1620,1785 1620 L1780 1620L1770 1620 L1770 1630 L1765 1630C1762 1630,1757 1630,1755 1630 L1750 1630L1740 1630 L1740 1640 L1735 1640C1732 1640,1727 1640,1725 1640 L1720 1640L1710 1640 L1710 1650 L1705 1650C1702 1650,1697 1650,1695 1650 L1690 1650M2080 1530 L2075 1530C2072 1530,2067 1530,2065 1530 L2060 1530L2050 1530 L2050 1540 L2045 1540C2042 1540,2037 1540,2035 1540 L2030 1540L2020 1540 L2020 1550 L2015 1550C2012 1550,2007 1550,2005 1550 L2000 1550L1990 1550 L1992 1546C1993 1544,2010 1537,2028 1531 C2047 1525,2066 1520,2071 1520 L2080 1520M1810 1430 L1815 1425 L1830 1430 L1830 1420 L1835 1420C1837 1420,1842 1420,1845 1420 L1850 1420L1860 1420 L1860 1410 L1865 1410C1867 1410,1872 1410,1875 1410 L1880 1410L1890 1410 L1890 1400 L1895 1400C1897 1400,1902 1400,1905 1400 L1910 1400L1915 1415 L1900 1410 1890 1410 L1890 1420 1885 1425 L1870 1420 1860 1420 L1860 1430 1855 1435 L1840 1430 1830 1430 L1830 1440 1825 1445 L1810 1440 M1400 1675 C1400 1496,1402 1350,1405 1350 C1425 1350,1450 1374,1459 1404 C1470 1435,1473 1438,1495 1429 L1520 1420 1520 1694 L1520 1969 1480 1979 C1389 2003,1400 2042,1400 1675 M1447 1090 C1398 1050,1337 907,1324 806 C1312 709,1353 646,1413 669 C1520 710,1616 1019,1544 1094 C1524 1115,1474 1114,1447 1090 " />
<path d="M270 1656 C270 1654,227 1530,174 1379 C79 1104,75 1084,118 1092 C131 1094,324 1631,314 1637 C299 1646,270 1659,270 1656 " />
<path d="M338 1318 C251 1060,248 1046,265 1033 C292 1013,295 1015,309 1062 L322 1105 335 1055 C360 956,431 931,499 999 L538 1038 545 987 C554 922,592 880,641 880 C681 879,717 910,753 972 C785 1027,912 1389,905 1406 C902 1414,892 1420,881 1420 C866 1420,852 1390,805 1253 C733 1045,726 1029,694 991 C663 953,622 949,594 981 C579 997,575 1016,575 1068 C576 1121,587 1166,632 1295 C662 1383,691 1462,695 1472 C700 1485,695 1492,678 1498 C662 1504,652 1503,648 1496 C645 1490,616 1410,585 1320 C520 1134,488 1065,460 1050 C403 1019,360 1062,359 1148 C359 1191,374 1247,422 1387 C470 1529,482 1572,472 1580 C438 1606,430 1590,338 1318 " />
<path d="M1024 1329 C991 1301,955 1228,941 1161 C920 1062,955 1000,1055 961 C1112 938,1116 918,1074 863 C1030 805,971 808,903 871 L872 901 861 869 C848 831,857 810,900 779 C968 731,1026 734,1083 788 C1124 826,1149 881,1220 1083 C1270 1227,1279 1263,1268 1271 C1243 1287,1231 1280,1219 1242 C1212 1221,1204 1211,1202 1220 C1184 1286,1165 1321,1139 1335 C1098 1355,1054 1353,1024 1329 M1044 1258 C1020 1242,990 1169,990 1127 C989 1080,1017 1050,1083 1024 C1139 1003,1143 1006,1159 1082 C1177 1166,1170 1217,1135 1253 C1117 1272,1067 1275,1044 1258 " />
<path d="M1765 1064 C1753 1059,1730 1010,1730 989 C1730 986,1752 985,1779 987 C1876 997,1930 947,1909 869 C1895 816,1866 799,1773 791 C1701 784,1694 781,1664 747 C1612 686,1593 580,1624 520 C1642 485,1712 450,1763 450 C1796 450,1802 453,1815 484 C1835 532,1834 533,1794 525 C1746 516,1673 549,1664 584 C1656 617,1664 651,1688 680 C1703 699,1720 705,1785 711 C1879 720,1904 736,1943 810 C1991 904,1970 998,1891 1042 C1857 1061,1788 1073,1765 1064 " />
<path d="M29 962 C6 903,6 882,29 875 C56 866,53 863,73 924 C90 976,90 977,60 985 C45 988,37 983,29 962 " />
<path d="M2359 538 C2273 282,2269 265,2285 253 C2312 233,2315 235,2329 282 L2343 325 2356 275 C2371 214,2407 180,2454 179 C2529 179,2567 239,2660 506 C2729 704,2732 724,2691 717 C2683 716,2658 661,2633 590 C2546 341,2537 319,2509 289 C2475 252,2438 251,2404 284 C2361 327,2369 393,2442 607 C2490 749,2502 792,2492 800 C2458 826,2450 811,2359 538 " />
<path d="M2861 610 C2751 532,2659 262,2701 138 C2723 74,2783 29,2849 30 C2880 30,2910 59,2910 91 C2910 105,2901 108,2866 106 C2816 104,2773 128,2758 168 C2721 264,2806 502,2893 543 C2937 564,2970 557,3009 518 C3025 502,3040 490,3043 490 C3045 490,3053 504,3059 521 C3068 549,3067 556,3047 577 C2996 632,2913 646,2861 610 " />
</g>
<g id="layer102" fill="#373749" fill-rule="evenodd">
<path d="M2242 1432 L2247 1427 L2260 1430 2270 1430 L2272 1422 2277 1417 L2290 1420 2300 1420 L2302 1412 2307 1407 L2320 1410 2330 1410 L2330 1400 L2335 1400C2337 1400,2342 1400,2345 1400 L2350 1400L2360 1400 L2360 1390 L2365 1390C2367 1390,2372 1390,2375 1390 L2380 1390L2390 1390 L2390 1380 L2395 1380C2397 1380,2402 1380,2405 1380 L2410 1380L2420 1380 L2420 1370 L2425 1370C2427 1370,2432 1370,2435 1370 L2440 1370L2450 1370 L2450 1360 L2455 1360C2457 1360,2462 1360,2465 1360 L2470 1360L2480 1360 L2480 1362C2480 1364,2423 1384,2353 1407 C2284 1430,2230 1446,2233 1444 L2240 1440" />
<path d="M2380 1420 L2392 1415C2399 1412,2431 1401,2464 1390 C2496 1379,2526 1370,2531 1370 L2540 1370L2540 1380 L2535 1380C2532 1380,2527 1380,2525 1380 L2520 1380L2510 1380 L2510 1390 L2505 1390C2502 1390,2497 1390,2495 1390 L2490 1390L2480 1390 L2480 1400 L2475 1400C2472 1400,2467 1400,2465 1400 L2460 1400L2450 1400 L2450 1410 L2445 1410C2442 1410,2437 1410,2435 1410 L2430 1410L2420 1410 L2420 1420 L2415 1420C2412 1420,2407 1420,2405 1420 L2400 1420L2390 1420 L2387 1427 2382 1427 " />
<path d="M2550 1370 L2562 1363C2569 1359,2612 1344,2659 1328 C2705 1312,2747 1300,2751 1300 L2760 1300L2760 1310 L2755 1310C2752 1310,2747 1310,2745 1310 L2740 1310L2730 1310 L2730 1320 L2725 1320C2722 1320,2717 1320,2715 1320 L2710 1320L2700 1320 L2700 1330 L2695 1330C2692 1330,2687 1330,2685 1330 L2680 1330L2670 1330 L2670 1340 L2665 1340C2662 1340,2657 1340,2655 1340 L2650 1340L2640 1340 L2640 1350 L2635 1350C2632 1350,2627 1350,2625 1350 L2620 1350L2610 1350 L2610 1360 L2605 1360C2602 1360,2597 1360,2595 1360 L2590 1360L2580 1360 L2580 1370 L2565 1370L2550 1370" />
<path d="M2280 1270 L2305 1260L2330 1250L2340 1250 L2340 1240 L2345 1240C2347 1240,2352 1240,2355 1240 L2360 1240L2370 1240 L2370 1230 L2375 1230C2377 1230,2382 1230,2385 1230 L2390 1230L2400 1230 L2400 1220 L2405 1220C2407 1220,2412 1220,2415 1220 L2420 1220L2430 1220 L2430 1210 L2435 1210C2437 1210,2442 1210,2445 1210 L2450 1210L2460 1210 L2460 1200 L2465 1200C2467 1200,2472 1200,2475 1200 L2480 1200L2477 1207 2472 1212 L2460 1210 L2460 1220 L2455 1220C2452 1220,2447 1220,2445 1220 L2440 1220L2430 1220 L2427 1227 2422 1232 L2410 1230 2400 1230 L2397 1237 2392 1242 L2380 1240 2370 1240 L2367 1247 2362 1252 L2350 1250 2340 1250 L2337 1257 2332 1262 L2325 1265 L2320 1270 L2315 1270C2312 1270,2307 1270,2305 1270 L2300 1270L2295 1275 L2287 1277 2282 1277 " />
<path d="M2890 1250 L2895 1250C2897 1250,2900 1247,2900 1245 L2900 1240L2900 1230 L2900 1185C2900 1160,2900 1137,2900 1135 C2900 1132,2900 1121,2900 1110 L2900 1090L2900 1080 L2905 1080C2907 1080,2910 1120,2910 1170 C2910 1219,2907 1260,2905 1260 C2902 1260,2897 1260,2895 1260 L2890 1260" />
<path d="M2490 1190 L2498 1190C2502 1190,2508 1187,2511 1185 C2514 1182,2519 1180,2523 1180 L2530 1180L2540 1180 L2540 1170 L2545 1170C2547 1170,2552 1170,2555 1170 L2560 1170L2570 1170 L2570 1160 L2575 1160C2577 1160,2582 1160,2585 1160 L2590 1160L2600 1160 L2600 1150 L2605 1150C2607 1150,2612 1150,2615 1150 L2620 1150L2630 1150 L2630 1140 L2635 1140C2637 1140,2642 1140,2645 1140 L2650 1140L2647 1147 2642 1152 L2630 1150 L2630 1160 L2625 1160C2622 1160,2617 1160,2615 1160 L2610 1160L2600 1160 L2597 1167 2592 1172 L2580 1170 2570 1170 L2567 1177 2562 1182 L2550 1180 2540 1180 L2537 1187 2532 1192 L2520 1190 2508 1188 L2510 1190 L2510 1195C2510 1197,2507 1200,2505 1200 L2500 1200L2495 1195 " />
</g>
<g id="layer103" fill="#60607b" fill-rule="evenodd">
<path d="M1210 1620 L1215 1620C1217 1620,1220 1622,1220 1625 L1220 1630L1220 1630 L1225 1630C1227 1630,1230 1661,1230 1700 C1230 1738,1227 1770,1225 1770 L1220 1770L1220 1770 L1215 1700L1210 1630" />
<path d="M1180 1630 L1180 1625C1180 1622,1184 1620,1190 1620 C1195 1620,1200 1650,1200 1690 C1200 1728,1197 1760,1195 1760 L1190 1760L1190 1760 L1190 1715C1190 1690,1190 1666,1190 1662 C1190 1658,1187 1649,1185 1642 L1180 1630" />
<path d="M1660 1490 L1660 1510C1660 1521,1660 1532,1660 1535 C1660 1537,1660 1560,1660 1585 L1660 1630L1660 1630 L1655 1630C1652 1630,1650 1598,1650 1560 C1650 1521,1652 1490,1655 1490 L1660 1490" />
<path d="M2875 1085 L2880 1090 L2880 1110C2880 1121,2880 1132,2880 1135 C2880 1137,2880 1160,2880 1185 L2880 1230L2870 1230 L2870 1155L2870 1080" />
</g>
<g id="layer104" fill="#8686bf" fill-rule="evenodd">
<path d="M200 2311 L199 1812 767 1586 C1079 1462,1342 1357,1352 1354 C1369 1348,1370 1366,1367 1679 L1365 2011 1260 2050 C1202 2072,1103 2115,1040 2145 C977 2175,919 2198,911 2195 C903 2192,886 2196,873 2205 C839 2227,841 2276,875 2292 C905 2305,929 2295,944 2262 C958 2231,1149 2137,1317 2079 L1370 2061 1370 2338 L1370 2615 810 2707 C502 2758,238 2802,225 2805 L200 2810 200 2311 M560 2420 C560 2415,581 2409,607 2408 L655 2405 657 2285 C659 2220,656 2162,652 2158 C647 2153,629 2154,611 2161 C593 2167,576 2169,573 2166 C566 2160,643 2124,685 2113 L710 2107 710 2258 L710 2410 755 2410 C779 2410,800 2414,800 2420 C800 2426,753 2430,680 2430 C611 2430,560 2425,560 2420 M304 2084 C292 2079,289 2063,292 2002 L295 1927 748 1764 C1002 1673,1209 1604,1220 1607 C1237 1611,1239 1621,1240 1700 L1240 1788 900 1899 C713 1960,506 2028,440 2050 C374 2072,313 2087,304 2084 " />
<path d="M1550 2295 L1550 2010 1587 2001 C1608 1995,1672 1981,1730 1970 C1787 1958,1845 1946,1858 1943 C1881 1939,1882 1940,1877 1984 C1874 2010,1875 2029,1878 2027 C1909 2014,2130 1886,2134 1880 C2137 1876,2073 1860,1992 1844 C1911 1829,1840 1814,1835 1811 C1830 1808,1836 1822,1848 1841 C1860 1861,1870 1881,1870 1886 C1870 1891,1804 1907,1723 1923 C1642 1939,1570 1954,1563 1957 C1551 1961,1550 1905,1552 1618 L1555 1275 1875 1148 C2136 1045,2195 1024,2198 1037 C2202 1053,2173 1083,2147 1092 C2138 1095,2139 1104,2149 1130 C2157 1149,2164 1166,2165 1168 C2166 1169,2183 1164,2203 1156 C2247 1137,2259 1114,2260 1048 L2260 995 2682 827 C2914 735,3112 657,3122 654 C3139 648,3139 691,3139 1481 L3139 2315 2369 2442 C1946 2512,1588 2572,1575 2575 L1550 2580 1550 2295 M2240 2030 C2240 2017,2270 1990,2332 1947 C2436 1875,2470 1834,2470 1780 C2470 1726,2451 1708,2394 1702 C2332 1697,2290 1712,2290 1739 C2290 1751,2283 1760,2275 1760 C2253 1760,2254 1694,2275 1686 C2305 1674,2450 1679,2482 1693 C2526 1711,2542 1732,2542 1776 C2542 1828,2517 1856,2399 1935 L2295 2005 2428 2007 C2540 2010,2560 2012,2555 2025 C2551 2037,2518 2041,2395 2045 C2247 2049,2240 2049,2240 2030 M1660 1630 L1655 1630C1652 1630,1650 1598,1650 1560 C1650 1521,1652 1490,1655 1490 L1660 1490L1660 1490 L1663 1484C1665 1481,1801 1432,1964 1374 C2127 1317,2265 1269,2270 1270 L2280 1270L2280 1270 L2305 1260L2330 1250L2335 1245 L2340 1240 L2345 1240C2347 1240,2352 1240,2355 1240 L2360 1240L2365 1235 L2370 1230 L2375 1230C2377 1230,2382 1230,2385 1230 L2390 1230L2395 1225 L2400 1220 L2405 1220C2407 1220,2412 1220,2415 1220 L2420 1220L2425 1215 L2430 1210 L2435 1210C2437 1210,2442 1210,2445 1210 L2450 1210L2455 1205 L2460 1200 L2465 1200C2467 1200,2472 1200,2475 1200 L2480 1200L2485 1195 L2490 1190 L2498 1190C2502 1190,2508 1187,2511 1185 C2514 1182,2519 1180,2523 1180 L2530 1180L2535 1175 L2540 1170 L2545 1170C2547 1170,2552 1170,2555 1170 L2560 1170L2565 1165 L2570 1160 L2575 1160C2577 1160,2582 1160,2585 1160 L2590 1160L2595 1155 L2600 1150 L2605 1150C2607 1150,2612 1150,2615 1150 L2620 1150L2625 1145 L2630 1140 L2635 1140C2637 1140,2642 1140,2645 1140 L2650 1140L2650 1130 L2657 1129C2661 1129,2709 1114,2763 1094 C2818 1075,2870 1062,2881 1065 C2891 1068,2900 1073,2900 1075 L2900 1080L2900 1080 L2905 1080C2907 1080,2910 1120,2910 1170 C2910 1219,2907 1260,2905 1260 C2902 1260,2897 1260,2895 1260 L2890 1260L2890 1260 L2830 1285L2770 1310L2760 1310 L2755 1310C2752 1310,2747 1310,2745 1310 L2740 1310L2735 1315 L2730 1320 L2725 1320C2722 1320,2717 1320,2715 1320 L2710 1320L2705 1325 L2700 1330 L2695 1330C2692 1330,2687 1330,2685 1330 L2680 1330L2675 1335 L2670 1340 L2665 1340C2662 1340,2657 1340,2655 1340 L2650 1340L2645 1345 L2640 1350 L2635 1350C2632 1350,2627 1350,2625 1350 L2620 1350L2615 1355 L2610 1360 L2605 1360C2602 1360,2597 1360,2595 1360 L2590 1360L2585 1365 L2580 1370 L2565 1370L2550 1370L2545 1375 L2540 1380 L2535 1380C2532 1380,2527 1380,2525 1380 L2520 1380L2515 1385 L2510 1390 L2505 1390C2502 1390,2497 1390,2495 1390 L2490 1390L2485 1395 L2480 1400 L2475 1400C2472 1400,2467 1400,2465 1400 L2460 1400L2455 1405 L2450 1410 L2445 1410C2442 1410,2437 1410,2435 1410 L2430 1410L2425 1415 L2420 1420 L2415 1420C2412 1420,2407 1420,2405 1420 L2400 1420L2395 1425 L2387 1427 2382 1427 L2370 1430 L2037 1540C1829 1609,1696 1648,1682 1645 C1670 1642,1660 1637,1660 1634 L1660 1630M2235 1445 L2235 1445 L2250 1450 L2250 1440 L2255 1440C2257 1440,2262 1440,2265 1440 L2270 1440L2280 1440 L2280 1430 L2285 1430C2287 1430,2292 1430,2295 1430 L2300 1430L2310 1430 L2310 1420 L2315 1420C2317 1420,2322 1420,2325 1420 L2330 1420L2340 1420 L2340 1410 L2345 1410C2347 1410,2352 1410,2355 1410 L2360 1410L2370 1410 L2370 1400 L2375 1400C2377 1400,2382 1400,2385 1400 L2390 1400L2400 1400 L2400 1390 L2405 1390C2407 1390,2412 1390,2415 1390 L2420 1390L2430 1390 L2430 1380 L2435 1380C2437 1380,2442 1380,2445 1380 L2450 1380L2460 1380 L2460 1370 L2465 1370C2467 1370,2472 1370,2475 1370 L2480 1370L2490 1370 L2620 1320L2750 1270L2750 1260 2760 1260 L2760 1270 L2775 1265L2790 1260L2780 1260 L2780 1255C2780 1252,2782 1250,2785 1250 L2790 1250L2790 1260 L2835 1245L2880 1230L2880 1230 L2885 1230C2887 1230,2892 1230,2895 1230 L2900 1230L2897 1227 2900 1240 L2890 1240 L2882 1248C2878 1253,2852 1264,2825 1273 C2798 1282,2772 1290,2768 1290 L2760 1290L2760 1300 L2745 1300L2730 1300L2720 1300 L2720 1310 L2715 1310C2712 1310,2707 1310,2705 1310 L2700 1310L2690 1310 L2690 1320 L2685 1320C2682 1320,2677 1320,2675 1320 L2670 1320L2660 1320 L2660 1330 L2655 1330C2652 1330,2647 1330,2645 1330 L2640 1330L2630 1330 L2630 1340 L2625 1340C2622 1340,2617 1340,2615 1340 L2610 1340L2600 1340 L2600 1350 L2595 1350C2592 1350,2587 1350,2585 1350 L2580 1350L2570 1350 L2570 1360 L2565 1360C2562 1360,2557 1360,2555 1360 L2550 1360L2540 1360 L2540 1370 L2525 1370L2510 1370L2500 1370 L2500 1380 L2495 1380C2492 1380,2487 1380,2485 1380 L2480 1380L2470 1380 L2470 1390 L2465 1390C2462 1390,2457 1390,2455 1390 L2450 1390L2440 1390 L2440 1400 L2435 1400C2432 1400,2427 1400,2425 1400 L2420 1400L2410 1400 L2410 1410 L2405 1410C2402 1410,2397 1410,2395 1410 L2390 1410L2380 1410 L2390 1425 L2370 1420 L2307 1439C2273 1450,2124 1497,1976 1545 C1828 1592,1706 1629,1704 1627 C1702 1625,1816 1586,1957 1540 C2099 1493,2216 1454,2217 1453 L2220 1450" />
</g>
<g id="layer105" fill="#afafde" fill-rule="evenodd">
<path d="M1544 2942 C861 2877,319 2822,331 2818 C344 2814,588 2772,875 2725 L1395 2640 2540 2824 C3169 2925,3673 3008,3660 3009 C3646 3009,3480 3021,3292 3035 C3104 3048,2911 3060,2865 3060 C2818 3060,2223 3007,1544 2942 " />
<path d="M2755 2792 C2159 2689,1669 2602,1666 2599 C1663 2597,1998 2538,2409 2469 L3158 2343 3959 2628 C4400 2786,4757 2915,4753 2917 C4743 2919,3889 2980,3860 2980 C3849 2980,3352 2895,2755 2792 " />
<path d="M2155 2725 L2160 2720 L2167 2720C2170 2720,2178 2724,2184 2730 C2190 2736,2186 2740,2172 2740 C2159 2740,2150 2737,2150 2735 L2150 2730" />
<path d="M310 1940 L309 1947C309 1951,311 1976,314 2002 L320 2050L320 2050 L320 2055C320 2057,315 2060,310 2060 C304 2060,300 2033,300 2000 C300 1967,302 1940,305 1940 L310 1940" />
<path d="M2865 1075 L2865 1075 L2870 1080 L2870 1155L2870 1230L2860 1230 L2860 1155L2860 1080" />
</g>
<g id="layer106" fill="#d9d9ff" fill-rule="evenodd">
<path d="M4725 2865 L4720 2860 L3950 2588L3180 2317 3180 1492 C3180 1039,3183 669,3188 671 C3192 673,3563 1018,4013 1438 L4830 2202 4830 2551 C4830 2743,4826 2900,4821 2900 C4816 2900,4793 2893,4771 2885 L4730 2870" />
<path d="M1930 2690 L1925 2690C1922 2690,1917 2690,1915 2690 L1910 2690L1900 2690 L1885 2690L1870 2690L1870 2680 L1865 2680C1862 2680,1857 2680,1855 2680 L1850 2680L1840 2680 L1825 2680L1810 2680L1810 2670 L1805 2670C1802 2670,1797 2670,1795 2670 L1790 2670L1780 2670 L1765 2670L1750 2670L1750 2660 L1745 2660C1742 2660,1737 2660,1735 2660 L1730 2660L1720 2660 L1700 2660L1680 2660L1680 2650 L1675 2650C1672 2650,1667 2650,1665 2650 L1660 2650L1650 2650 L1635 2650L1620 2650L1620 2640 L1615 2640C1612 2640,1607 2640,1605 2640 L1600 2640L1590 2640 L1577 2640C1570 2640,1529 2634,1485 2627 L1405 2614 1402 2332 L1399 2050 1442 2039 C1465 2033,1492 2026,1502 2023 C1518 2019,1519 2039,1522 2316 L1525 2615 1555 2617 C1571 2619,1588 2620,1592 2620 L1600 2620L1605 2625 L1610 2630 L1625 2630L1640 2630L1645 2635 1650 2640 L1660 2640 L1680 2640L1700 2640L1705 2645 L1710 2650 L1730 2650L1750 2650L1750 2660 1760 2660 L1770 2660 L1790 2660L1810 2660L1810 2670 1820 2670 L1830 2670 L1850 2670L1870 2670L1870 2680 1880 2680 L1890 2680 L1910 2680L1930 2680L1932 2690 1940 2690 L1950 2690 L1970 2690L1990 2690L1985 2695 1980 2700 L1970 2700 L1950 2700L1930 2700" />
<path d="M310 1940 L745 1785L1180 1630L1180 1630 L1185 1642C1187 1649,1190 1658,1190 1662 C1190 1666,1190 1690,1190 1715 L1190 1760L1190 1760 L755 1905L320 2050L320 2050 L314 2002C311 1976,309 1951,309 1947 L310 1940" />
<path d="M1400 1675 C1400 1496,1402 1350,1405 1350 C1425 1350,1450 1374,1459 1404 C1470 1435,1473 1438,1495 1429 L1520 1420 1520 1694 L1520 1969 1480 1979 C1389 2003,1400 2042,1400 1675 " />
<path d="M1210 1630 L1215 1700L1220 1770L1220 1770 L1214 1707C1211 1673,1209 1641,1209 1637 L1210 1630" />
<path d="M2282 1277 L2287 1277 L2295 1275 L2300 1270 L2305 1270C2307 1270,2312 1270,2315 1270 L2320 1270L2325 1265 L2332 1262 2337 1257 L2350 1260 2355 1255 L2362 1252 2367 1247 L2380 1250 2385 1245 L2392 1242 2397 1237 L2410 1240 2415 1235 L2422 1232 2427 1227 L2435 1225 L2440 1220 L2445 1220C2447 1220,2452 1220,2455 1220 L2460 1220L2465 1215 L2472 1212 2477 1207 L2490 1210 2495 1205 L2502 1202 2507 1197 L2520 1200 2525 1195 L2532 1192 2537 1187 L2550 1190 2555 1185 L2562 1182 2567 1177 L2580 1180 2585 1175 L2592 1172 2597 1167 L2605 1165 L2610 1160 L2615 1160C2617 1160,2622 1160,2625 1160 L2630 1160L2635 1155 L2642 1152 2647 1147 L2660 1150 L2760 1115L2860 1080L2860 1080 L2860 1155L2860 1230L2860 1230 L2762 1259C2708 1276,2624 1303,2575 1319 C2526 1336,2482 1350,2478 1350 L2470 1350L2470 1360 L2465 1360C2462 1360,2457 1360,2455 1360 L2450 1360L2445 1365 L2440 1370 L2435 1370C2432 1370,2427 1370,2425 1370 L2420 1370L2415 1375 L2410 1380 L2405 1380C2402 1380,2397 1380,2395 1380 L2390 1380L2385 1385 L2380 1390 L2375 1390C2372 1390,2367 1390,2365 1390 L2360 1390L2355 1395 L2350 1400 L2345 1400C2342 1400,2337 1400,2335 1400 L2330 1400L2320 1400 2315 1405 L2307 1407 2302 1412 L2290 1410 2285 1415 L2277 1417 2272 1422 L2260 1420 2255 1425 L2247 1427 2242 1432 L2230 1430 L2227 1431C2226 1431,2105 1471,1960 1520 C1814 1569,1689 1609,1682 1609 C1672 1609,1669 1594,1672 1553 L1675 1496 1972 1388 L2270 1280" />
<path d="M2890 1090 L2900 1090 L2900 1110C2900 1121,2900 1132,2900 1135 C2900 1137,2900 1160,2900 1185 L2900 1230L2890 1230 L2880 1230 L2880 1185C2880 1160,2880 1137,2880 1135 C2880 1132,2880 1121,2880 1110 L2880 1090" />
</g>

</svg>